<svg width="20" height="19" viewBox="0 0 20 19" fill="none" xmlns="http://www.w3.org/2000/svg">
<path d="M9.35733 0.264656C9.71228 -0.0882796 10.2875 -0.0882796 10.6425 0.264656L19.7333 9.31251C20.0883 9.66584 20.0883 10.2385 19.7333 10.5918C19.3783 10.9451 18.8032 10.9451 18.4481 10.5918L18.1815 10.3272V17.1943C18.1815 18.193 17.3691 18.9998 16.3632 19H3.63663C2.63315 18.9998 1.81827 18.1931 1.81827 17.1943V10.3272L1.55166 10.5918C1.19664 10.9451 0.62153 10.9451 0.266508 10.5918C-0.0885087 10.2385 -0.0885123 9.66584 0.266508 9.31251L9.35733 0.264656ZM3.63663 8.51954C3.63644 10.2283 3.63662 17.1698 3.63663 17.1904L6.36319 17.1914V11.7598C6.36319 11.2613 6.77062 10.8574 7.27041 10.8574H12.7294C13.23 10.8574 13.6366 11.261 13.6366 11.7598V17.1924L16.3632 17.1943V8.51954L9.99991 2.19141L3.63663 8.51954ZM8.18155 12.667V17.1914L11.8183 17.1924V12.665L8.18155 12.667Z" fill="#FF0000"/>
</svg>
